<?xml version="1.0" encoding="utf-8"?>
<!-- Svg Vector Icons : http://www.sfont.cn -->
<!DOCTYPE svg PUBLIC "-//W3C//DTD SVG 1.1//EN" "http://www.w3.org/Graphics/SVG/1.1/DTD/svg11.dtd">
<svg version="1.1" xmlns="http://www.w3.org/2000/svg" xmlns:xlink="http://www.w3.org/1999/xlink" x="0px" y="0px" viewBox="0 0 1000 1000" enable-background="new 0 0 1000 1000" xml:space="preserve">
<metadata> Svg Vector Icons : http://www.sfont.cn </metadata>
<g><path d="M976.7,516.3c11.6,11.6,15.6,21.4,12,29.4c-3.6,8-13.4,12-29.4,12h-91.4v337.4c0,10.2-0.4,17.8-1.1,22.9c-0.7,5.1-3.6,9.8-8.7,14.1c-5.1,4.4-13.4,6.5-25,6.5H611V601.2H389v337.4H177.8c-20.3,0-33-3.6-38.1-10.9c-5.1-7.3-7.6-18.1-7.6-32.7V557.7H40.7c-16,0-25.8-4-29.4-12c-3.6-8,0.4-17.8,12-29.4L458.6,78.8C470.2,67.2,484,61.4,500,61.4c16,0,29.8,5.8,41.4,17.4L976.7,516.3"/></g>
</svg>
